HIERARCHY
ROOT Hips
{
  OFFSET 57.8838 95.319 338.509
  CHANNELS 6 Xposition Yposition Zposition Zrotation Xrotation Yrotation
  JOINT LeftUpLeg
  {
    OFFSET 8.64259 1.95398 -2.38835
    CHANNELS 3 Zrotation Xrotation Yrotation
    JOINT LeftLeg
    {
      OFFSET 43.7702 0 0
      CHANNELS 3 Zrotation Xrotation Yrotation
      JOINT LeftFoot
      {
        OFFSET 40.6238 0 0
        CHANNELS 3 Zrotation Xrotation Yrotation
        JOINT LeftToeBase
        {
          OFFSET 12.7242 0 0
          CHANNELS 3 Zrotation Xrotation Yrotation
          End Site
          {
            OFFSET 0 0 0
          }
        }
      }
    }
  }
  JOINT RightUpLeg
  {
    OFFSET -8.2249 1.95398 -2.59336
    CHANNELS 3 Zrotation Xrotation Yrotation
    JOINT RightLeg
    {
      OFFSET 43.5653 0 0
      CHANNELS 3 Zrotation Xrotation Yrotation
      JOINT RightFoot
      {
        OFFSET 40.6238 0 0
        CHANNELS 3 Zrotation Xrotation Yrotation
        JOINT RightToeBase
        {
          OFFSET 12.7242 0 0
          CHANNELS 3 Zrotation Xrotation Yrotation
          End Site
          {
            OFFSET 0 0 0
          }
        }
      }
    }
  }
  JOINT Spine
  {
    OFFSET 0.165834 0.87714 6.61349
    CHANNELS 3 Zrotation Xrotation Yrotation
    JOINT Spine1
    {
      OFFSET 7.38963 1.71661e-005 0
      CHANNELS 3 Zrotation Xrotation Yrotation
      JOINT Spine2
      {
        OFFSET 11.9445 1.14441e-005 0
        CHANNELS 3 Zrotation Xrotation Yrotation
        JOINT Spine3
        {
          OFFSET 14.7254 4.19617e-005 0
          CHANNELS 3 Zrotation Xrotation Yrotation
          JOINT Spine4
          {
            OFFSET 10.9679 0 0
            CHANNELS 3 Zrotation Xrotation Yrotation
            JOINT RightShoulder
            {
              OFFSET 2.46616 -1.6653 3.69651
              CHANNELS 3 Zrotation Xrotation Yrotation
              JOINT RightArm
              {
                OFFSET 13.0012 0 0
                CHANNELS 3 Zrotation Xrotation Yrotation
                JOINT RightForeArm
                {
                  OFFSET 28.7848 1.62311e-005 0
                  CHANNELS 3 Zrotation Xrotation Yrotation
                  JOINT RightHand
                  {
                    OFFSET 26.5688 1.62095e-005 0
                    CHANNELS 3 Zrotation Xrotation Yrotation
                    End Site
                    {
                      OFFSET 0 0 0
                    }
                  }
                }
              }
            }
            JOINT LeftShoulder
            {
              OFFSET 2.38034 -1.29275 -3.7523
              CHANNELS 3 Zrotation Xrotation Yrotation
              JOINT LeftArm
              {
                OFFSET 16.3182 6.07031e-005 0
                CHANNELS 3 Zrotation Xrotation Yrotation
                JOINT LeftForeArm
                {
                  OFFSET 27.0901 0 0
                  CHANNELS 3 Zrotation Xrotation Yrotation
                  JOINT LeftHand
                  {
                    OFFSET 24.5451 1.51738e-005 0
                    CHANNELS 3 Zrotation Xrotation Yrotation
                    End Site
                    {
                      OFFSET 0 0 0
                    }
                  }
                }
              }
            }
            JOINT Neck
            {
              OFFSET 5.0226 -0.0266342 0
              CHANNELS 3 Zrotation Xrotation Yrotation
              JOINT Head
              {
                OFFSET 6.69364 2.86102e-005 0
                CHANNELS 3 Zrotation Xrotation Yrotation
                End Site
                {
                  OFFSET 0 0 0
                }
              }
            }
          }
        }
      }
    }
  }
}
MOTION
Frames:	12
Frame Time:	0.0416667
235.116 97.6035 -238.29 -105.444 -56.619 -102.985 -176.99 -13.699 86.4149 -19.88 26.3486 2.48253 60.6137 7.50812 11.3561 48.9883 9.08747 6.06396 175.084 20.0076 89.0437 -13.9894 6.92679 -0.431488 65.7489 7.48805 18.3686 28.871 0.104927 -5.80772 -0.609089 7.88366 -90.0134 11.1075 -1.21855 0.0920385 -0.562913 -1.21331 0.145572 -23.1025 -1.18987 -0.278493 -3.08989 -1.18986 -0.278502 96.9954 -54.2084 -89.6171 29.7856 1.03317 4.69502 3.01739 -12.0555 -9.40426 -10.3535 -0.590668 1.49888 -83.5875 -51.5942 88.5392 -37.9573 -8.45102 -40.433 -2.80201 66.1013 -0.0288831 7.3338 -1.1256 -16.8793 9.97197 -0.647467 -4.6324 -17.1863 -0.588219 7.73635 
227.832 96.4519 -231.76 -105.38 -57.6206 -101.816 -176.609 -15.2337 89.0739 -27.9185 27.6129 4.85483 59.3116 4.81744 8.85317 56.9786 12.5681 4.86674 172.372 20.6359 89.8067 -20.1155 4.17849 2.49825 61.864 8.62339 11.5999 25.177 5.33881 -3.83747 -0.868713 7.85494 -90.3024 11.1623 -1.86956 -0.421773 -0.507408 -1.88631 -0.339058 -23.0506 -1.65637 -0.964279 -3.03795 -1.65638 -0.964285 96.7527 -54.5715 -89.9383 29.1778 1.64197 3.39592 2.7607 -12.292 -9.00395 -7.94851 -0.463542 1.74231 -83.0358 -51.2963 89.3314 -38.4229 -8.87337 -36.3574 -3.25383 66.694 -0.0616473 9.03397 -1.32773 -16.6929 12.2575 0.334991 -5.13684 -18.0413 0.218875 9.80107 
220.109 95.9834 -224.904 -105.027 -56.7705 -98.9255 -175.838 -10.6739 94.6601 -41.7288 20.3421 6.08717 51.661 -5.93564 -0.362157 50.9887 9.95864 5.82302 171.315 19.4757 93.1195 -29.1861 -2.05393 4.33757 63.8089 3.7649 2.90765 19.5465 11.332 3.967 -0.811361 7.69426 -90.8413 11.473 -2.00732 -1.46838 -0.197052 -2.07002 -1.37861 -22.7332 -1.47326 -2.00371 -2.72061 -1.47329 -2.00372 96.8749 -54.0705 -89.807 27.546 0.978288 1.11425 2.81563 -11.6484 -9.65311 -9.4583 -0.652296 2.92995 -83.1338 -52.8021 89.327 -40.5747 -14.5202 -31.1897 -0.0667589 72.2369 0.000183279 2.77485 -0.495604 -15.9723 11.6919 1.10864 -5.33904 -18.169 0.806173 11.0889 
213.533 95.9368 -219.193 -105.057 -56.2215 -97.7561 -176.946 1.29152 92.4752 -58.9562 9.80525 5.6952 49.6685 -6.08927 5.55748 46.2674 8.16359 8.97927 170.383 15.9856 95.3908 -35.3295 1.6068 4.63718 69.8994 1.68719 7.88214 23.321 6.80587 2.87446 -0.548698 7.75221 -91.1213 11.3505 -1.61459 -2.07127 -0.320942 -1.70415 -1.99824 -22.8461 -0.917658 -2.46055 -2.83344 -0.917654 -2.46056 97.2061 -53.5008 -89.3701 25.9702 0.420478 -4.26061 2.73641 -9.90823 -11.9239 -12.0865 -0.679026 1.39192 -84.1078 -53.6653 87.9927 -43.2966 -21.5108 -29.054 6.93047 83.6782 0.098776 -0.154644 -0.0452796 -15.9012 11.9109 0.267465 -5.99656 -17.1613 0.390326 10.0234 
207.28 96.5397 -213.644 -101.97 -52.9448 -95.3389 -176.374 13.7494 88.8612 -63.0614 8.61925 3.88894 53.4124 -1.16008 8.67279 49.0863 10.2263 13.1471 171.514 11.6032 96.6798 -34.7231 0.500805 3.32506 72.8869 -1.89545 6.95804 24.9828 4.65757 3.20934 -0.0442995 7.816 -91.0275 11.2342 -0.566246 -1.99015 -0.438132 -0.653295 -1.96332 -22.9612 0.0579033 -2.06831 -2.94853 0.0579267 -2.0683 96.2146 -53.0131 -90.8982 24.5574 -3.0626 -11.9756 2.51532 -8.6454 -14.929 -14.7336 -0.915497 2.08493 -83.7582 -53.5191 88.4848 -43.6151 -27.8947 -27.6052 11.2315 87.3075 0.364682 1.47749 -0.0648168 -14.2851 11.7745 -0.462184 -6.62352 -15.9499 0.0637384 8.91238 
201.368 97.2353 -207.953 -101.442 -49.2177 -96.6166 -177.196 18.6347 85.8697 -47.4206 6.28785 1.31558 55.5279 1.97269 7.67471 52.1407 12.0931 14.2034 171.419 4.58494 95.6403 -32.8139 -0.56533 1.74591 75.4113 -3.27364 9.81611 27.1876 1.91865 2.71515 0.31814 7.95364 -90.7409 10.9658 0.290525 -1.49989 -0.705993 0.224235 -1.51123 -23.2356 0.727824 -1.34328 -3.22294 0.727833 -1.34329 95.9587 -52.305 -91.3616 21.8951 -7.09631 -19.8602 1.72778 -7.8057 -17.5775 -13.996 -0.692191 0.568215 -83.6592 -53.5174 88.6288 -39.0133 -30.8841 -21.1799 11.0564 84.6605 0.17913 2.52887 -0.194001 -15.7097 10.2562 -0.305858 -6.13468 -15.5532 -0.00729257 9.37476 
195.502 97.4544 -202.765 -100.55 -47.5382 -95.9218 179.663 16.8969 86.8105 -16.257 6.20889 -0.295941 51.7042 -1.80732 7.13158 41.7238 6.25553 13.0247 172.159 -2.30108 95.9363 -27.3668 1.21409 0.331848 75.3911 -5.59931 11.2053 29.8463 -1.454 2.42714 0.509081 7.97676 -90.6851 10.9228 0.696834 -1.42903 -0.748806 0.633243 -1.45831 -23.281 1.09406 -1.15358 -3.2684 1.09405 -1.15359 96.0014 -51.6557 -91.3733 18.9831 -10.1642 -25.0649 0.384445 -6.82104 -21.9317 -12.908 -0.4656 -1.02167 -83.4045 -54.0481 89.0488 -34.4285 -32.6965 -14.8496 9.39389 82.6226 0.142848 0.725864 -0.0111738 -14.3806 10.2811 0.0236046 -5.30632 -16.0368 0.0577157 9.60034 
189.602 96.6966 -196.776 -99.3385 -44.8902 -93.5596 177.834 19.2195 88.8702 -6.70608 5.12999 0.150138 58.5623 -2.23095 1.31592 36.6144 3.40644 11.9672 172.363 -8.38981 96.1286 -24.8874 -2.27698 0.0237332 72.2461 -8.03636 9.56059 36.3008 -9.64064 2.48228 0.754592 7.96393 -90.7128 10.9521 1.17242 -1.52937 -0.719247 1.104 -1.57948 -23.2544 1.57782 -1.10634 -3.24174 1.57781 -1.10635 95.0854 -51.0676 -92.843 18.4597 -11.9035 -26.6065 -1.85 -8.01543 -26.1222 -12.0987 -0.467368 -0.715719 -82.7291 -54.8023 90.0878 -31.318 -33.266 -11.1078 8.01549 79.837 0.1175 -0.389685 0.0864397 -13.5757 11.0653 0.39314 -4.76579 -16.0667 0.381584 9.15761 
183.051 95.8127 -189.544 -98.5635 -44.6265 -93.9227 177.786 18.6279 87.3498 -10.3457 9.52751 -0.226761 51.9538 -6.60782 6.80544 33.6152 1.83205 9.77763 171.643 -10.3468 93.5136 -30.749 -6.04095 -0.780735 68.7943 -3.67444 12.069 39.9166 -14.6457 0.346116 0.771958 7.93342 -90.4629 11.0149 1.32232 -1.04597 -0.655821 1.275 -1.10316 -23.1952 1.57553 -0.600158 -3.18258 1.57553 -0.600156 95.3588 -51.3709 -92.3854 19.2017 -13.7108 -24.8057 -2.57357 -8.83418 -26.3219 -11.8709 -0.430618 -1.01691 -82.9013 -56.088 89.9492 -32.0634 -35.5188 -13.9192 10.9225 81.0262 0.145873 -0.350249 0.110799 -14.2374 12.163 0.0664549 -4.34725 -16.8806 0.0144605 8.57266 
176.689 95.6291 -182.264 -99.7322 -45.652 -96.7305 178.946 18.9551 84.5062 -23.5588 12.7561 -0.759124 56.0718 -4.29632 11.295 31.5122 1.02778 3.45423 169.286 -5.71521 85.6129 -44.3619 -7.98599 -0.846455 57.9685 8.77635 16.0978 32.067 -5.04091 -8.97681 0.56637 7.93771 -89.9833 10.9986 1.13528 -0.0777992 -0.671817 1.13076 -0.127699 -23.2107 1.10616 0.267032 -3.19805 1.10618 0.26704 95.2268 -52.114 -92.4898 23.8401 -13.9441 -17.7228 -1.85101 -9.24717 -24.3098 -11.9109 -0.540782 0.146048 -83.6485 -54.4203 88.7317 -36.2906 -36.3104 -19.2302 13.8771 83.031 0.192184 -0.264991 0.151116 -13.4699 11.7997 -0.124048 -5.51187 -17.1231 0.0470396 8.7654 
171.043 95.8056 -175.742 -102.633 -46.3953 -100.377 -179.757 13.4568 82.074 -28.1904 14.368 -1.28177 60.4114 0.625296 14.4855 31.9585 1.27354 0.330724 168.657 4.83791 89.2135 -61.7775 -10.5356 -1.01532 54.5569 11.0126 10.508 28.1043 1.81979 -13.4998 0.260643 8.14235 -89.72 10.5868 0.647898 0.499122 -1.08408 0.669242 0.470116 -23.6193 0.467914 0.670762 -3.60661 0.467936 0.670763 95.4984 -52.6499 -92.013 27.2004 -11.6107 -13.8298 -0.560352 -13.4041 -17.6177 -10.0187 -0.529345 1.00531 -83.9573 -54.3451 88.2813 -39.87 -32.7441 -27.1239 13.6065 82.9964 0.175011 1.503 0.029266 -13.0899 11.5257 0.166941 -5.80717 -16.4953 0.237473 10.3818 
165.318 96.7747 -169.369 -103.964 -48.9264 -99.7229 -179.071 7.02816 83.4819 -28.7039 16.6385 0.0205599 63.2408 3.87875 14.3313 34.9412 2.49811 1.2333 169.768 13.8152 90.4337 -64.823 -10.1048 -0.409226 57.5984 6.71319 9.13324 28.6929 0.493925 -8.19766 -0.114404 8.13971 -89.948 10.5946 -0.203798 0.121789 -1.07638 -0.198252 0.130639 -23.6117 -0.230998 0.0549052 -3.59901 -0.230996 0.0549073 95.7562 -53.283 -91.5512 28.7949 -7.91205 -9.26636 1.77103 -13.1389 -13.015 -10.8031 -0.575084 1.04963 -83.72 -53.6743 88.5559 -41.0663 -25.8349 -32.3072 9.1033 77.4574 0.0597725 2.27392 -0.123215 -13.4813 11.3277 0.915441 -4.77901 -18.8882 0.671654 9.23 
